<?xml version="1.0" standalone="no"?>
<!DOCTYPE svg PUBLIC "-//W3C//DTD SVG 1.1//EN" "http://www.w3.org/Graphics/SVG/1.1/DTD/svg11.dtd">
<svg t="1537342280978" class="icon" style="" viewBox="0 0 1024 1024" version="1.1" xmlns="http://www.w3.org/2000/svg" p-id="8323"
 xmlns:xlink="http://www.w3.org/1999/xlink" width="64" height="64"><defs><style type="text/css"></style></defs>
 <path d="M511.47265625 960.9453125c-119.97070313 0-232.734375-46.7578125-317.63671875-131.57226563C109.109375 744.47070313 62.3515625 631.70703125 62.3515625 511.73632812c0-119.97070313 46.7578125-232.734375 131.57226563-317.63671874C278.73828125 109.28515625 391.50195312 62.52734375 511.47265625 62.52734375s232.734375 46.7578125 317.63671875 131.57226563c175.16601563 175.16601563 175.16601563 460.10742188 0 635.18554687-84.81445313 84.90234375-197.578125 131.66015625-317.63671875 131.66015625z m0-867.39257813c-111.70898438 0-216.73828125 43.50585938-295.6640625 122.51953125C136.8828125 295.0859375 93.37695312 400.02734375 93.37695312 511.73632812c0 111.70898438 43.50585938 216.65039063 122.43164063 295.66406251 79.01367188 78.92578125 183.95507813 122.43164063 295.6640625 122.43164062 111.70898438 0 216.73828125-43.50585938 295.6640625-122.43164063 163.03710938-163.03710938 163.03710938-428.29101563 0-591.328125C728.2109375 137.05859375 623.18164063 93.55273437 511.47265625 93.55273437z m0 0" fill="#8a8a8a" p-id="8324"></path>
 <path d="M511.4 801.4c-2.4 0-4.7-0.7-6.8-2-8.6-5.5-210.4-136-268.4-272.9-10.1-21.1-15.4-44.2-15.5-67.6 0-41.5 16.2-80.5 45.5-109.9 29.3-29.3 68.4-45.5 109.9-45.5S456.6 319.7 486 349c9.9 9.9 18.5 21.1 25.4 33.3 6.9-12.2 15.5-23.4 25.4-33.3 29.3-29.3 68.4-45.5 109.9-45.5s80.5 16.2 109.9 45.5c29.3 29.3 45.5 68.4 45.5 109.9 0 23.4-5.3 46.5-15.5 67.6-58 136.9-259.8 267.4-268.4 272.9-2 1.4-4.4 2-6.8 2z" fill="#3DC8B7" p-id="8325"></path>
 <path d="M697.4 465.4c-0.4 0-0.9-0.1-1.2-0.4-1.5-1-37.9-24.5-48.4-49.2-1.8-3.8-2.8-8-2.8-12.2 0-7.5 2.9-14.5 8.2-19.8 5.3-5.3 12.3-8.2 19.8-8.2s14.5 2.9 19.8 8.2c1.8 1.8 3.3 3.8 4.6 6 1.2-2.2 2.8-4.2 4.6-6 5.3-5.3 12.3-8.2 19.8-8.2s14.5 2.9 19.8 8.2c5.3 5.3 8.2 12.3 8.2 19.8 0 4.2-1 8.4-2.8 12.2-10.4 24.7-46.8 48.2-48.4 49.2-0.4 0.3-0.8 0.4-1.2 0.4z" fill="#d81e06" p-id="8326" data-spm-anchor-id="a313x.7781069.0.i21" class=""></path>
 <path d="M802.1 361.6c-0.4 0-0.9-0.1-1.2-0.4-1.5-1-37.9-24.5-48.4-49.2-1.8-3.8-2.8-8-2.8-12.2 0-7.5 2.9-14.5 8.2-19.8 5.3-5.3 12.3-8.2 19.8-8.2s14.5 2.9 19.8 8.2c1.8 1.8 3.3 3.8 4.6 6 1.2-2.2 2.8-4.2 4.6-6 5.3-5.3 12.3-8.2 19.8-8.2s14.5 2.9 19.8 8.2c5.3 5.3 8.2 12.3 8.2 19.8 0 4.2-1 8.4-2.8 12.2-10.4 24.7-46.8 48.2-48.4 49.2-0.4 0.3-0.8 0.4-1.2 0.4z" fill="#d81e06" p-id="8327"></path></svg>